<svg version="1.2" xmlns="http://www.w3.org/2000/svg" viewBox="0 0 65 65" width="65" height="65">
	<title>cc-svg</title>
	<style>
		.s0 { fill: #000000;stroke: #000000;stroke-miterlimit:100 } 
		.s1 { fill: #ffffff } 
	</style>
	<g id="Layer">
		<path id="Layer" fill-rule="evenodd" class="s0" d="m32.8 61.3c-16 0-28.9-12.9-28.9-28.8 0-15.9 12.9-28.8 28.9-28.8 15.9 0 28.8 12.9 28.8 28.8 0 15.9-12.9 28.8-28.8 28.8z"/>
		<path id="Layer" fill-rule="evenodd" class="s1" d="m32.4 0.5q13.5 0 22.9 9.4 4.5 4.5 6.9 10.3 2.3 5.8 2.3 12.3 0 6.6-2.3 12.3-2.3 5.8-6.8 10.2-4.7 4.6-10.7 7-5.9 2.5-12.3 2.5-6.3 0-12.1-2.4-5.8-2.5-10.4-7.1-4.6-4.6-7-10.3-2.4-5.8-2.4-12.2 0-6.3 2.4-12.2 2.5-5.9 7.1-10.5 9.1-9.3 22.4-9.3zm0.2 5.8q-11 0-18.5 7.6-3.8 3.9-5.8 8.6-2 4.8-2 10 0 5.1 2 9.9 2 4.8 5.8 8.5 3.8 3.8 8.5 5.7 4.8 2 10 2 5.1 0 9.9-2 4.9-2 8.7-5.8 7.5-7.3 7.5-18.3 0-5.3-1.9-10.1-2-4.7-5.7-8.4-7.7-7.7-18.5-7.7zm-0.4 20.9l-4.3 2.2q-0.7-1.4-1.7-2-1-0.6-1.9-0.6-4.3 0-4.3 5.7 0 2.6 1.1 4.1 1.1 1.6 3.2 1.6 2.8 0 4-2.8l3.9 2q-1.2 2.4-3.5 3.7-2.2 1.3-4.9 1.3-4.3 0-6.9-2.6-2.6-2.6-2.6-7.3 0-4.6 2.6-7.3 2.7-2.6 6.7-2.6 6 0 8.6 4.6zm18.4 0l-4.2 2.2q-0.7-1.4-1.7-2-1-0.6-1.9-0.6-4.3 0-4.3 5.7 0 2.6 1.1 4.1 1.1 1.6 3.2 1.6 2.8 0 3.9-2.8l4 2q-1.3 2.4-3.5 3.7-2.2 1.3-4.9 1.3-4.3 0-6.9-2.6-2.6-2.6-2.6-7.3 0-4.6 2.6-7.3 2.7-2.6 6.8-2.6 5.9 0 8.4 4.6z"/>
	</g>
</svg>