<svg version="1.2" xmlns="http://www.w3.org/2000/svg" viewBox="0 0 197 197" width="197" height="197">
	<title>fediverse-svg-svg</title>
	<style>
		.s0 { fill: #ffffff } 
	</style>
	<g id="layer2">
		<path id="path9722" fill-rule="evenodd" class="s0" d="m37.2 73.1q-0.7 1.3-1.7 2.7-0.9 1.3-2 2.4-1.2 1.1-2.4 2-1.3 1-2.8 1.8l48.7 48.7 11.7-5.9zm64.3 64.5l-11.7 5.9 24.6 24.8q0.7-1.5 1.6-2.7 1-1.3 2.2-2.4 1.1-1.2 2.4-2.1 1.2-1 2.7-1.7z"/>
		<path id="path9729" fill-rule="evenodd" class="s0" d="m157.7 92.4l-27.5 14 2.1 13 31.1-15.8q-1.1-1.2-2-2.4-0.9-1.4-1.7-2.8-0.7-1.4-1.2-2.9-0.5-1.5-0.8-3.1zm-43.5 22.1l-65.2 33q1.2 1.1 2.1 2.5 0.9 1.2 1.7 2.7 0.7 1.3 1.1 2.8 0.6 1.6 0.8 3.2l61.5-31.3z"/>
		<path id="path9713" fill-rule="evenodd" class="s0" d="m93.3 33.2l-31.5 61.4 9.3 9.2 33.3-64.9q-1.6-0.3-3.1-0.8-1.5-0.5-2.9-1.2-1.5-0.8-2.7-1.7-1.3-0.9-2.4-2zm-39.7 77.3l-15.9 31q1.6 0.4 3 0.8 1.6 0.5 3 1.3 1.5 0.7 2.7 1.6 1.3 1 2.4 2l14.1-27.4z"/>
		<path id="path1015" fill-rule="evenodd" class="s0" d="m28.1 82.1q-1.2 0.5-2.5 1-1.2 0.4-2.5 0.7-1.4 0.3-2.7 0.4-1.3 0-2.6 0-0.3 0-0.6 0-0.2-0.1-0.5-0.1-0.2 0-0.4 0-0.4-0.1-0.6-0.1l9.3 59.5q1.3-0.6 2.5-1.1 1.3-0.4 2.5-0.6 1.4-0.4 2.8-0.5 1.2-0.1 2.6 0 0.2 0 0.4 0 0.4 0 0.6 0.1 0.2 0 0.5 0 0.2 0 0.5 0.1z"/>
		<path id="path1674" fill-rule="evenodd" class="s0" d="m54.7 158.9q0.1 0.6 0.1 1.1 0.1 0.5 0.1 1 0 0.6 0 1.1 0 0.5 0 1 0 1.1-0.2 2.1-0.1 1.1-0.4 2.1-0.3 1.1-0.7 2.1-0.4 0.9-0.8 1.9l59.5 9.6q-0.2-0.6-0.2-1-0.1-0.6-0.1-1.2 0-0.4 0-1 0-0.5 0-1 0-1 0.3-2.2 0.1-1 0.4-2 0.2-1.1 0.7-2.1 0.3-1 0.8-1.9z"/>
		<path id="path1676" fill-rule="evenodd" class="s0" d="m163.5 103.8l-27.4 53.5q1.6 0.4 3.1 0.8 1.6 0.5 3 1.3 1.3 0.7 2.7 1.6 1.2 1 2.4 2l27.4-53.5q-1.5-0.3-3.1-0.8-1.5-0.5-2.8-1.2-1.5-0.8-2.8-1.7-1.3-0.9-2.5-2z"/>
		<path id="path1678" fill-rule="evenodd" class="s0" d="m126.1 28.1q-0.7 1.3-1.6 2.6-1 1.3-2.1 2.4-1.2 1.1-2.4 2.1-1.3 0.9-2.7 1.6l42.5 42.7q0.8-1.4 1.7-2.7 0.9-1.3 2-2.4 1.2-1.1 2.4-2.1 1.4-0.9 2.8-1.6z"/>
		<path id="path1680" fill-rule="evenodd" class="s0" d="m87.4 21.8l-53.7 27.2q1.1 1.1 2 2.5 0.9 1.2 1.6 2.6 0.7 1.5 1.3 3 0.4 1.5 0.7 3l53.7-27.2q-1.1-1.1-2-2.3-0.9-1.4-1.7-2.8-0.7-1.5-1.1-2.9-0.6-1.5-0.8-3.1z"/>
		<path id="path9758" fill-rule="evenodd" class="s0" d="m117.1 36.9q-1.1 0.6-2.3 1-1.4 0.5-2.7 0.8-1.3 0.3-2.7 0.4-1.3 0.1-2.7 0-0.2 0-0.5 0-0.2 0-0.4 0-0.2 0-0.5-0.1-0.2 0-0.4 0l4.7 30.4 13 2.1zm-4.8 50.3l11.3 72q1.1-0.5 2.4-1 1.2-0.4 2.5-0.7 1.3-0.3 2.6-0.3 1.4-0.1 2.6-0.1 0.3 0 0.6 0.1 0.3 0 0.5 0 0.3 0 0.6 0.1 0.2 0 0.5 0l-10.6-68.1z"/>
		<path id="path9760" fill-rule="evenodd" class="s0" d="m39.4 60.3q0 0.6 0.1 1.2 0 0.4 0.1 1 0 0.6 0 1 0 0.6 0 1.2-0.1 1-0.2 2-0.3 1-0.5 2.1-0.2 1-0.7 2-0.3 1-0.8 1.9l30.5 4.9 6-11.7zm52.2 8.4l-5.9 11.7 72 11.6q0-0.5-0.1-1 0-0.5 0-1-0.1-0.6-0.1-1 0-0.6 0.1-1.2 0-1 0.2-2 0.1-1.1 0.5-2.2 0.2-1 0.5-2 0.5-0.9 0.9-1.9z"/>
	</g>
	<g id="layer3">
		<path id="path817" fill-rule="evenodd" class="s0" d="m106.8 37.3c-10.5-0.6-18.4-9.5-17.9-19.9 0.6-10.4 9.5-18.3 19.9-17.8 10.4 0.6 18.4 9.5 17.8 19.8-0.6 10.5-9.5 18.4-19.8 17.9z"/>
		<path id="path819" fill-rule="evenodd" class="s0" d="m177.2 107.9c-10.5-0.6-18.4-9.5-17.9-19.8 0.6-10.5 9.5-18.4 19.9-17.9 10.4 0.6 18.3 9.5 17.8 19.9-0.6 10.4-9.5 18.3-19.8 17.8z"/>
		<path id="path823" fill-rule="evenodd" class="s0" d="m131.7 196.6c-10.5-0.6-18.4-9.5-17.8-19.8 0.5-10.5 9.4-18.4 19.9-17.9 10.3 0.6 18.3 9.5 17.7 19.9-0.6 10.4-9.4 18.3-19.8 17.8z"/>
		<path id="path825" fill-rule="evenodd" class="s0" d="m33.2 180.8c-10.3-0.6-18.3-9.5-17.7-19.8 0.6-10.5 9.4-18.4 19.8-17.9 10.4 0.6 18.4 9.5 17.8 19.9-0.5 10.4-9.4 18.3-19.9 17.8z"/>
		<path id="path827" fill-rule="evenodd" class="s0" d="m17.9 82.3c-10.5-0.6-18.4-9.4-17.9-19.8 0.6-10.5 9.5-18.4 19.9-17.8 10.4 0.5 18.3 9.4 17.8 19.9-0.6 10.3-9.5 18.3-19.8 17.7z"/>
	</g>
</svg>